static optimization
version=1
nRows=13
nColumns=93
inDegrees=yes
endheader
time	glut_med1_r	glut_med2_r	glut_med3_r	glut_min1_r	glut_min2_r	glut_min3_r	semimem_r	semiten_r	bifemlh_r	bifemsh_r	sar_r	add_long_r	add_brev_r	add_mag1_r	add_mag2_r	add_mag3_r	tfl_r	pect_r	grac_r	glut_max1_r	glut_max2_r	glut_max3_r	iliacus_r	psoas_r	quad_fem_r	gem_r	peri_r	rect_fem_r	vas_med_r	vas_int_r	vas_lat_r	med_gas_r	lat_gas_r	soleus_r	tib_post_r	flex_dig_r	flex_hal_r	tib_ant_r	per_brev_r	per_long_r	per_tert_r	ext_dig_r	ext_hal_r	glut_med1_l	glut_med2_l	glut_med3_l	glut_min1_l	glut_min2_l	glut_min3_l	semimem_l	semiten_l	bifemlh_l	bifemsh_l	sar_l	add_long_l	add_brev_l	add_mag1_l	add_mag2_l	add_mag3_l	tfl_l	pect_l	grac_l	glut_max1_l	glut_max2_l	glut_max3_l	iliacus_l	psoas_l	quad_fem_l	gem_l	peri_l	rect_fem_l	vas_med_l	vas_int_l	vas_lat_l	med_gas_l	lat_gas_l	soleus_l	tib_post_l	flex_dig_l	flex_hal_l	tib_ant_l	per_brev_l	per_long_l	per_tert_l	ext_dig_l	ext_hal_l	ercspn_r	ercspn_l	intobl_r	intobl_l	extobl_r	extobl_l
0.876000	0.464868	0.353615	0.347565	0.151606	0.163517	0.165126	0.081871	0.014586	0.068350	0.000000	0.000000	0.000000	0.000000	0.000000	0.000000	0.000000	0.112545	0.000000	0.000000	0.118569	0.162278	0.000000	0.000000	0.000000	0.000000	0.000000	0.130642	0.000000	0.100984	0.109159	0.152057	0.000000	0.000000	0.125270	0.345718	0.011107	0.002697	0.101127	0.000000	0.000000	0.000000	0.020054	0.031535	0.011295	0.000000	0.000000	0.004625	0.000000	0.000000	0.000000	0.005884	0.000000	0.000000	0.000000	0.084728	0.056853	0.038123	0.033834	0.036268	0.000000	0.016380	0.014153	0.000000	0.000000	0.000000	0.050016	0.045626	0.000000	0.000000	0.000000	0.000000	0.011537	0.012818	0.016338	0.000000	0.000000	0.000000	0.000000	0.000000	0.000000	0.027986	0.006639	0.009491	0.008177	0.015814	0.002653	0.000000	0.122512	0.000000	0.020293	0.000000	0.002340
0.892000	0.485741	0.373115	0.359612	0.166669	0.173872	0.168922	0.068149	0.000000	0.045474	0.000000	0.009977	0.000000	0.000000	0.000000	0.000000	0.000000	0.142159	0.000000	0.000000	0.110985	0.146315	0.000000	0.000000	0.000000	0.000000	0.000000	0.131644	0.000000	0.070450	0.076478	0.105076	0.000000	0.002358	0.147724	0.327451	0.009126	0.001640	0.088963	0.000000	0.000000	0.000000	0.018269	0.028928	0.000000	0.000000	0.000000	0.000000	0.000000	0.000000	0.000000	0.000000	0.000000	0.000000	0.000000	0.076798	0.051679	0.038378	0.030133	0.019916	0.000000	0.015714	0.014732	0.000000	0.000000	0.000000	0.047809	0.046312	0.000552	0.000000	0.000000	0.012824	0.009644	0.010723	0.013603	0.000000	0.000000	0.000000	0.000000	0.000000	0.000000	0.022128	0.004517	0.006103	0.006058	0.012724	0.002422	0.000000	0.108777	0.000000	0.008543	0.000000	0.007857
0.908000	0.482966	0.368953	0.343782	0.169615	0.172235	0.162071	0.077483	0.002035	0.046011	0.000000	0.012442	0.000000	0.000000	0.000000	0.000000	0.000000	0.147273	0.000000	0.000000	0.098515	0.129344	0.000000	0.000000	0.000000	0.000000	0.000000	0.119260	0.000000	0.040754	0.044376	0.060161	0.000000	0.021955	0.171584	0.336864	0.009499	0.002063	0.091024	0.000000	0.000000	0.000000	0.018095	0.029944	0.000000	0.000000	0.000000	0.000000	0.000000	0.000000	0.000000	0.000000	0.000000	0.000000	0.000366	0.057584	0.037797	0.029535	0.020021	0.002464	0.000000	0.012424	0.011206	0.000000	0.000000	0.000000	0.041000	0.041378	0.018798	0.002069	0.000000	0.023342	0.008158	0.009024	0.011463	0.000000	0.000000	0.000000	0.000000	0.000000	0.000000	0.018218	0.003060	0.003753	0.004639	0.010881	0.002353	0.000000	0.097704	0.000000	0.000613	0.000000	0.015247
0.924000	0.483805	0.384097	0.362556	0.172822	0.176356	0.166833	0.077672	0.000000	0.041499	0.000000	0.020716	0.000000	0.000000	0.000000	0.000000	0.000000	0.156379	0.000000	0.000000	0.092114	0.120375	0.000000	0.000000	0.000000	0.000000	0.000000	0.127365	0.000000	0.011988	0.013082	0.017522	0.017668	0.041282	0.187312	0.321362	0.009079	0.002325	0.088529	0.000000	0.000000	0.000000	0.016797	0.029465	0.000000	0.000000	0.000000	0.000000	0.000000	0.000000	0.000000	0.000000	0.000000	0.000000	0.006650	0.025644	0.013411	0.010271	0.002275	0.000000	0.000000	0.006387	0.003208	0.000000	0.000000	0.000000	0.031338	0.033083	0.025537	0.007712	0.003860	0.033046	0.005508	0.006039	0.007720	0.000000	0.000000	0.000000	0.000000	0.000000	0.000000	0.016565	0.002530	0.002923	0.004072	0.010320	0.002383	0.002014	0.091130	0.009440	0.000000	0.000000	0.022991
0.940000	0.485286	0.397509	0.381112	0.178170	0.183358	0.174880	0.051680	0.000000	0.009138	0.020230	0.039395	0.000000	0.000000	0.000000	0.000000	0.000000	0.175069	0.000000	0.000000	0.081380	0.101063	0.000000	0.000000	0.000000	0.000000	0.000000	0.139426	0.000000	0.000000	0.000000	0.000000	0.080169	0.066852	0.183069	0.301411	0.009052	0.002814	0.088599	0.000000	0.000000	0.000000	0.015871	0.029130	0.000000	0.004212	0.022312	0.000000	0.002149	0.007393	0.000000	0.000000	0.000000	0.000000	0.014478	0.000000	0.000000	0.000000	0.000000	0.000000	0.013671	0.000000	0.000000	0.000000	0.000000	0.000000	0.027062	0.029288	0.006664	0.006377	0.019346	0.045100	0.000750	0.000817	0.001052	0.000000	0.000000	0.000000	0.000000	0.000000	0.000000	0.016979	0.002880	0.003556	0.004274	0.010881	0.002489	0.000614	0.085676	0.010918	0.000000	0.000000	0.025830
0.956000	0.467057	0.383112	0.366688	0.177034	0.182227	0.173106	0.026835	0.000000	0.000000	0.060486	0.057282	0.000000	0.000000	0.000000	0.000000	0.000000	0.184416	0.000000	0.000000	0.063996	0.072179	0.000000	0.000000	0.000000	0.000000	0.000000	0.137944	0.000000	0.000000	0.000000	0.000000	0.162072	0.104199	0.176408	0.312905	0.011223	0.004473	0.102666	0.000000	0.000000	0.000000	0.016701	0.032144	0.004792	0.030652	0.059860	0.005925	0.013801	0.023659	0.000000	0.000000	0.000000	0.021767	0.028861	0.000000	0.000000	0.000000	0.000000	0.000000	0.027251	0.000000	0.000000	0.001900	0.000000	0.000000	0.037448	0.041208	0.000299	0.009775	0.040940	0.049426	0.000000	0.000000	0.000000	0.000000	0.000000	0.000000	0.000000	0.000000	0.000000	0.019005	0.003953	0.005407	0.005077	0.012277	0.002635	0.000608	0.082747	0.007778	0.000000	0.000000	0.022098
0.972000	0.436955	0.372876	0.371586	0.167391	0.176651	0.171938	0.047739	0.000000	0.000000	0.103870	0.061936	0.000000	0.000000	0.000000	0.000000	0.000000	0.171220	0.000000	0.000000	0.054137	0.061443	0.000000	0.000000	0.000000	0.000000	0.000000	0.145510	0.000000	0.000000	0.000000	0.000000	0.249939	0.143111	0.177552	0.320816	0.012989	0.005894	0.115209	0.000000	0.000000	0.000000	0.016994	0.034803	0.011741	0.048829	0.092153	0.009433	0.021327	0.036636	0.000000	0.000000	0.000000	0.046843	0.044097	0.000000	0.000000	0.000000	0.000000	0.000000	0.039435	0.000000	0.000000	0.005604	0.000000	0.000000	0.051757	0.057188	0.000000	0.014750	0.062890	0.053416	0.000000	0.000000	0.000000	0.000000	0.000000	0.000000	0.000000	0.000000	0.000000	0.022120	0.005579	0.008213	0.006309	0.014181	0.002766	0.005329	0.084788	0.004605	0.000000	0.000000	0.014014
0.988000	0.393574	0.343256	0.352523	0.153474	0.165602	0.164027	0.066881	0.000243	0.016504	0.159547	0.067672	0.000000	0.000000	0.000000	0.000000	0.000000	0.154126	0.000000	0.000000	0.040661	0.043721	0.000000	0.000000	0.000000	0.000000	0.000000	0.143472	0.000000	0.000000	0.000000	0.000000	0.347205	0.186658	0.191990	0.347770	0.015844	0.007936	0.135580	0.000000	0.000000	0.000000	0.017725	0.039610	0.014900	0.059620	0.112543	0.011683	0.026423	0.045482	0.000000	0.000000	0.000000	0.069503	0.057419	0.000000	0.000000	0.000000	0.000000	0.000000	0.049449	0.000000	0.000000	0.006492	0.000000	0.000000	0.067335	0.074004	0.000000	0.018690	0.078774	0.056660	0.000000	0.000000	0.000000	0.000000	0.000000	0.000000	0.000000	0.000000	0.000000	0.025938	0.007631	0.011766	0.007853	0.016336	0.002837	0.013597	0.092841	0.003609	0.000000	0.000000	0.006246
1.004000	0.355040	0.304421	0.315123	0.143977	0.156355	0.154978	0.071061	0.011984	0.014039	0.227018	0.080578	0.000000	0.000000	0.000000	0.000000	0.000000	0.146311	0.000000	0.000000	0.025457	0.019266	0.000000	0.008952	0.023604	0.000000	0.000000	0.134366	0.000000	0.000000	0.000000	0.000000	0.440244	0.227711	0.226319	0.383532	0.018793	0.010067	0.157961	0.000000	0.000000	0.000000	0.017877	0.045523	0.016218	0.062492	0.118353	0.013330	0.029318	0.049718	0.000000	0.000000	0.000000	0.088106	0.068001	0.000000	0.000000	0.000000	0.000000	0.000000	0.056963	0.000000	0.000000	0.003272	0.000000	0.000000	0.084060	0.091361	0.000000	0.020738	0.086042	0.059263	0.000000	0.000000	0.000000	0.000000	0.000000	0.000000	0.000000	0.000000	0.000000	0.030397	0.010047	0.015935	0.009678	0.018657	0.002840	0.020987	0.104683	0.003587	0.000000	0.000000	0.002440
1.020000	0.349599	0.299145	0.315497	0.142417	0.157496	0.159606	0.103574	0.045162	0.047289	0.290128	0.084564	0.000000	0.000000	0.000000	0.000000	0.000000	0.133603	0.000000	0.000000	0.018665	0.011288	0.000000	0.053690	0.071335	0.000000	0.000000	0.139033	0.000000	0.000000	0.000000	0.000000	0.510930	0.256071	0.277103	0.389350	0.018308	0.010126	0.159193	0.000000	0.000000	0.000000	0.015325	0.047634	0.018940	0.059098	0.110460	0.015262	0.030829	0.050123	0.000000	0.000000	0.000000	0.102584	0.075306	0.000000	0.000000	0.000000	0.000000	0.000000	0.061771	0.000000	0.000000	0.000000	0.000000	0.000000	0.100502	0.107751	0.000000	0.020335	0.084286	0.059930	0.000000	0.000000	0.000000	0.000000	0.000000	0.000000	0.000000	0.000000	0.000000	0.035293	0.012655	0.020380	0.011676	0.021107	0.002816	0.022992	0.115624	0.001832	0.000000	0.000000	0.003227
1.036000	0.356611	0.292334	0.304747	0.144261	0.159319	0.162649	0.148201	0.091303	0.094508	0.363451	0.085073	0.000000	0.000000	0.000000	0.000000	0.000000	0.116685	0.000000	0.000000	0.012743	0.004773	0.000000	0.087471	0.106543	0.000000	0.000000	0.136661	0.000000	0.000000	0.000000	0.000000	0.589584	0.289004	0.329966	0.397428	0.017362	0.009857	0.157516	0.000000	0.000000	0.000000	0.012315	0.049924	0.024638	0.052062	0.092972	0.017724	0.031533	0.047812	0.000000	0.000000	0.000000	0.113915	0.078812	0.000000	0.000000	0.000000	0.000000	0.000000	0.063534	0.000000	0.000000	0.000000	0.000000	0.000000	0.113618	0.120228	0.000000	0.017678	0.075367	0.055950	0.000000	0.000000	0.000000	0.000000	0.000000	0.000000	0.000000	0.000000	0.000000	0.040097	0.015058	0.024380	0.013593	0.023661	0.002895	0.013691	0.121894	0.000000	0.000000	0.000000	0.002274
1.052000	0.377646	0.284703	0.282655	0.151202	0.163157	0.164116	0.185485	0.133342	0.134450	0.429559	0.084691	0.000000	0.000000	0.000000	0.000000	0.000000	0.103297	0.000000	0.000000	0.007743	0.000000	0.000000	0.120885	0.140543	0.000000	0.000000	0.126559	0.000000	0.000000	0.000000	0.000000	0.661295	0.319724	0.376877	0.403202	0.015871	0.009166	0.151382	0.000000	0.000000	0.000000	0.009261	0.051632	0.031474	0.043019	0.070291	0.019731	0.030843	0.042946	0.000000	0.000000	0.000000	0.123598	0.076724	0.000000	0.000000	0.000000	0.000000	0.000000	0.060477	0.000000	0.000000	0.000000	0.000000	0.000000	0.117585	0.123109	0.000000	0.013527	0.061364	0.042164	0.000000	0.000000	0.000000	0.000000	0.000000	0.000000	0.000000	0.000000	0.000000	0.043812	0.016617	0.026830	0.014981	0.026229	0.003261	0.000000	0.122399	0.000000	0.003257	0.000000	0.001145
1.068000	0.407623	0.293138	0.282760	0.162159	0.172550	0.173125	0.206437	0.160433	0.157090	0.479046	0.086690	0.000000	0.000000	0.000000	0.000000	0.000000	0.099555	0.000000	0.000000	0.004766	0.000000	0.000000	0.152109	0.173536	0.000000	0.000000	0.126466	0.000000	0.000000	0.000000	0.000000	0.721142	0.343796	0.396975	0.375645	0.012008	0.006859	0.126485	0.000000	0.000000	0.000000	0.006202	0.048193	0.035613	0.029830	0.040235	0.018968	0.025813	0.032123	0.000000	0.000000	0.000000	0.136368	0.062088	0.000000	0.000000	0.000000	0.000000	0.000000	0.045973	0.000000	0.000000	0.000000	0.000000	0.000000	0.099219	0.102838	0.000000	0.007383	0.039047	0.005307	0.000000	0.000000	0.000000	0.000000	0.000000	0.000000	0.000000	0.000000	0.000000	0.044688	0.016507	0.026380	0.015163	0.028485	0.004071	0.000000	0.118841	0.000000	0.015353	0.000000	0.015822
